<svg xmlns="http://www.w3.org/2000/svg" xmlns:xlink="http://www.w3.org/1999/xlink" width="512" height="512" x="0" y="0" viewBox="0 0 32 32" style="enable-background:new 0 0 512 512" xml:space="preserve" class=""><g><circle cx="20" cy="12.5" r="1" fill="#fdfdfe" opacity="1" data-original="#000000"></circle><circle cx="12" cy="12.5" r="1" fill="#fdfdfe" opacity="1" data-original="#000000"></circle><path d="M21.44 4.025a10.465 10.465 0 0 0-10.88 0A11.038 11.038 0 0 0 0 15v2.5a4 4 0 0 0 4 4 3.816 3.816 0 0 0 1.066-.16 6.005 6.005 0 0 0 5.176 5.107 6.956 6.956 0 0 0 11.516 0 6.006 6.006 0 0 0 5.167-5.1A3.838 3.838 0 0 0 28 21.5a4 4 0 0 0 4-4V15A11.038 11.038 0 0 0 21.44 4.025Zm-15.966 8.4-.4 6.749A1.971 1.971 0 0 1 4 19.5a2 2 0 0 1-2-2V15a9.037 9.037 0 0 1 5.608-8.322 10.482 10.482 0 0 0-2.134 5.748ZM12.7 26.244a6.019 6.019 0 0 0 3.3-2.431 6.017 6.017 0 0 0 3.271 2.423 4.908 4.908 0 0 1-6.567.008ZM15 18.5a1 1 0 0 1 2 0 4.314 4.314 0 0 1-1 1.552 4.29 4.29 0 0 1-1-1.552Zm6 6a3.991 3.991 0 0 1-3.8-2.8c.731-.778 1.8-2.1 1.8-3.2a3 3 0 0 0-6 0c0 1.107 1.064 2.425 1.8 3.2A3.99 3.99 0 0 1 7 20.559l.472-8.016a8.545 8.545 0 0 1 17.06 0L25 20.5a4 4 0 0 1-4 4Zm9-7a2 2 0 0 1-2 2 1.968 1.968 0 0 1-1.076-.323l-.4-6.751a10.489 10.489 0 0 0-2.11-5.726A9.02 9.02 0 0 1 30 15Z" fill="#fdfdfe" opacity="1" data-original="#000000"></path></g></svg>