<svg xmlns="http://www.w3.org/2000/svg" xmlns:xlink="http://www.w3.org/1999/xlink" width="512" height="512" x="0" y="0" viewBox="0 0 128 128" style="enable-background:new 0 0 512 512" xml:space="preserve" class=""><g><path d="M22.919 99.771a5.49 5.49 0 1 0 0 10.979h82.341a5.49 5.49 0 1 0 0-10.979h-1.09V62.35a6.568 6.568 0 0 0 3.933-11.7L68.1 18.68a6.558 6.558 0 0 0-8.2 0l-40 31.968a6.557 6.557 0 0 0 3.93 11.685v37.438zm-1.314-42.077a3.055 3.055 0 0 1 .478-4.307l40-31.967a3.071 3.071 0 0 1 3.838 0l40 31.971a3.056 3.056 0 0 1 .478 4.306 3.026 3.026 0 0 1-4.309.485L65.1 28.622a1.751 1.751 0 0 0-2.186 0l-36.996 29.56a3.2 3.2 0 0 1-.913.5 3.071 3.071 0 0 1-3.4-.988zm35.8 7.766h-21.18a1.749 1.749 0 0 0-1.75 1.75v32.561H27.33V61.433a6.662 6.662 0 0 0 .773-.516L64 32.23l35.9 28.688a6.877 6.877 0 0 0 .771.518v38.335H59.157V67.21a1.749 1.749 0 0 0-1.75-1.75zm-1.75 3.5v30.811H37.974V68.96zM25.58 103.271h79.68a1.99 1.99 0 1 1 0 3.979H22.919a1.99 1.99 0 1 1 0-3.979z" fill="#fdfdfe" opacity="1" data-original="#000000" class=""></path><path d="M91.753 89.554A1.749 1.749 0 0 0 93.5 87.8V67.21a1.749 1.749 0 0 0-1.75-1.75H68.131a1.749 1.749 0 0 0-1.75 1.75V87.8a1.749 1.749 0 0 0 1.75 1.75zM69.881 68.96H90v3.487H69.881zm0 6.987H90v10.106H69.881zM71.6 52.016a7.508 7.508 0 1 0-7.507 7.507 7.516 7.516 0 0 0 7.507-7.507zm-11.515 0a4.008 4.008 0 1 1 4.008 4.007 4.013 4.013 0 0 1-4.011-4.007zM52.044 86.115a1.75 1.75 0 0 0 0-3.5h-1.535a1.75 1.75 0 0 0 0 3.5z" fill="#fdfdfe" opacity="1" data-original="#000000" class=""></path></g></svg>