<svg xmlns="http://www.w3.org/2000/svg" xmlns:xlink="http://www.w3.org/1999/xlink" width="512" height="512" x="0" y="0" viewBox="0 0 80 80" style="enable-background:new 0 0 512 512" xml:space="preserve" class=""><g><path d="M60.126 46.162a4.609 4.609 0 1 1 4.608-4.608 4.613 4.613 0 0 1-4.608 4.608zm0-7.217a2.609 2.609 0 1 0 2.608 2.609 2.611 2.611 0 0 0-2.608-2.609zM19.907 46.162a4.609 4.609 0 1 1 4.609-4.608 4.613 4.613 0 0 1-4.609 4.608zm0-7.217a2.609 2.609 0 1 0 2.609 2.609 2.612 2.612 0 0 0-2.609-2.609zM53.332 48.291H26.994a1 1 0 0 1-.849-1.527l2.933-4.732a1 1 0 0 1 .85-.472H50.4a1 1 0 0 1 .85.472l2.934 4.732a1 1 0 0 1-.85 1.527zm-24.541-2h22.744l-1.693-2.731H30.484zM55.939 51.922H23.865a1 1 0 1 1 0-2h32.074a1 1 0 0 1 0 2z" fill="#fdfdfe" opacity="1" data-original="#000000"></path><path d="M66.077 56.283H13.956a3.905 3.905 0 0 1-3.9-3.9v-8.965A10.334 10.334 0 0 1 20.377 33.1h39.278a10.335 10.335 0 0 1 10.323 10.318v8.964a3.905 3.905 0 0 1-3.901 3.901zM20.377 35.1a8.331 8.331 0 0 0-8.322 8.322v8.964a1.9 1.9 0 0 0 1.9 1.9h52.122a1.9 1.9 0 0 0 1.9-1.9v-8.968a8.332 8.332 0 0 0-8.322-8.318z" fill="#fdfdfe" opacity="1" data-original="#000000"></path><path d="M63.432 61.107h-5.411a2.242 2.242 0 0 1-2.239-2.239v-3.585a1 1 0 0 1 1-1h7.889a1 1 0 0 1 1 1v3.585a2.242 2.242 0 0 1-2.239 2.239zm-5.65-4.824v2.585a.24.24 0 0 0 .239.239h5.411a.24.24 0 0 0 .239-.239v-2.585zM22.012 61.107H16.6a2.241 2.241 0 0 1-2.239-2.239v-3.585a1 1 0 0 1 1-1h7.889a1 1 0 0 1 1 1v3.585a2.241 2.241 0 0 1-2.238 2.239zm-5.65-4.824v2.585a.239.239 0 0 0 .239.239h5.411a.238.238 0 0 0 .238-.239v-2.585zM63.64 35.989a1 1 0 0 1-.919-.6L57.483 23.3a5.385 5.385 0 0 0-4.5-2.411h-25.93a5.39 5.39 0 0 0-4.5 2.411l-5.241 12.085a1 1 0 1 1-1.835-.795l5.27-12.16a1.135 1.135 0 0 1 .078-.146 7.385 7.385 0 0 1 6.228-3.391H52.98a7.382 7.382 0 0 1 6.227 3.392.962.962 0 0 1 .078.145l5.272 12.162a1 1 0 0 1-.917 1.4z" fill="#fdfdfe" opacity="1" data-original="#000000"></path><path d="M65.522 34.861H62.91a1 1 0 0 1 0-2h2.612a1 1 0 0 1 0 2z" fill="#fdfdfe" opacity="1" data-original="#000000"></path><path d="M71.67 34.86h-6.148a1 1 0 0 1-1-1v-4.42a1 1 0 0 1 1-1H70.4a2.711 2.711 0 0 1 2.708 2.708v2.276a1.438 1.438 0 0 1-1.438 1.436zm-5.148-2h4.585v-1.712a.709.709 0 0 0-.708-.708h-3.877zM17.09 34.861h-2.612a1 1 0 0 1 0-2h2.612a1 1 0 0 1 0 2z" fill="#fdfdfe" opacity="1" data-original="#000000"></path><path d="M14.478 34.86H8.33a1.438 1.438 0 0 1-1.437-1.436v-2.276A2.711 2.711 0 0 1 9.6 28.44h4.877a1 1 0 0 1 1 1v4.42a1 1 0 0 1-.999 1zm-5.585-2h4.585v-2.42H9.6a.709.709 0 0 0-.708.708z" fill="#fdfdfe" opacity="1" data-original="#000000"></path></g></svg>